<svg
  width="110.5"
  height="110.5"
  viewBox="0 0 110.5 110.5"
  fill="none"
  xmlns="http://www.w3.org/2000/svg"
  overflow="visible"
  xml:space="preserve"
>
  <path
    fill="#339AF0"
    d="M55 0c30.375 0 55 24.625 55 55s-24.625 55-55 55S0 85.375 0 55 24.625 0 55 0"
  />
  <path
    opacity=".4"
    fill="#FFF"
    d="m38.441 75.495 8.753 15.179c4.432 7.683 14.298 10.328 21.98 5.896a16.134 16.134 0 0 0 8.049-13.938c0-1.791-.334-3.556-.917-5.24 7.803-5.776 12.762-15.033 12.762-25.201 0-17.297-14.071-31.368-31.368-31.368H34.98c-8.869 0-16.083 7.215-16.083 16.084 0 2.854.591 5.696 1.903 8.019l17.641 30.569z"
  />
  <path
    fill="#FFF"
    d="M57.699 31.331c11.501 0 20.86 9.358 20.86 20.86 0 10.081-7.218 18.517-16.765 20.426l4.173 7.234a5.57 5.57 0 0 1-2.043 7.616 5.575 5.575 0 0 1-7.617-2.044l-8.766-15.182a5.576 5.576 0 0 1 4.83-8.362h5.327c5.354 0 9.707-4.347 9.707-9.688 0-5.353-4.354-9.708-9.707-9.708H34.98a5.576 5.576 0 0 1 0-11.153h22.719zM43.913 47.233a5.576 5.576 0 0 0-5.575 5.576 5.567 5.567 0 0 0 5.575 5.565 5.568 5.568 0 0 0 5.577-5.565 5.578 5.578 0 0 0-5.577-5.576z"
  />
</svg>
